<svg width="78" height="16" viewBox="0 0 78 16" fill="none" xmlns="http://www.w3.org/2000/svg">
    <path d="M58.77 12.8226H61.0542V15.1068H58.77V12.8226Z" fill="#191F5B"/>
    <path d="M57.4071 9.86777C57.4071 10.2303 57.3829 10.5566 57.3345 10.8467H49.9927C50.0531 11.5718 50.3069 12.1398 50.754 12.5507C51.2012 12.9616 51.7511 13.1671 52.4037 13.1671C53.3464 13.1671 54.0171 12.7622 54.4159 11.9525H57.1533C56.8632 12.9193 56.3073 13.717 55.4855 14.3454C54.6637 14.9618 53.6545 15.27 52.4581 15.27C51.4912 15.27 50.6211 15.0585 49.8476 14.6355C49.0862 14.2004 48.488 13.5901 48.0529 12.8045C47.6299 12.019 47.4185 11.1126 47.4185 10.0853C47.4185 9.04596 47.6299 8.13352 48.0529 7.34796C48.4759 6.56241 49.0681 5.95814 49.8295 5.53515C50.5909 5.11216 51.4671 4.90067 52.4581 4.90067C53.4128 4.90067 54.2648 5.10612 55.0141 5.51702C55.7755 5.92793 56.3617 6.51407 56.7726 7.27545C57.1956 8.02475 57.4071 8.88885 57.4071 9.86777ZM54.7785 9.14265C54.7664 8.49003 54.5307 7.97036 54.0715 7.58363C53.6122 7.18481 53.0503 6.9854 52.3856 6.9854C51.7571 6.9854 51.2254 7.17877 50.7903 7.5655C50.3673 7.94015 50.1075 8.46586 50.0108 9.14265H54.7785Z" fill="#191F5B"/>
    <path d="M43.4305 15.1068L40.0224 10.8286V15.1068H37.4845V1.69199H40.0224V9.32393L43.3943 5.06382H46.6936L42.2703 10.1034L46.7298 15.1068H43.4305Z" fill="#191F5B"/>
    <path d="M30.3838 15.27C29.417 15.27 28.5468 15.0585 27.7733 14.6355C26.9999 14.2004 26.3896 13.5901 25.9424 12.8045C25.5073 12.019 25.2898 11.1126 25.2898 10.0853C25.2898 9.05805 25.5134 8.15164 25.9605 7.36609C26.4198 6.58054 27.0422 5.97627 27.8277 5.55328C28.6133 5.1182 29.4895 4.90067 30.4563 4.90067C31.4231 4.90067 32.2993 5.1182 33.0849 5.55328C33.8704 5.97627 34.4868 6.58054 34.934 7.36609C35.3932 8.15164 35.6228 9.05805 35.6228 10.0853C35.6228 11.1126 35.3872 12.019 34.9158 12.8045C34.4566 13.5901 33.8281 14.2004 33.0305 14.6355C32.245 15.0585 31.3627 15.27 30.3838 15.27ZM30.3838 13.0583C30.843 13.0583 31.2721 12.9496 31.6709 12.732C32.0818 12.5024 32.4081 12.164 32.6498 11.7168C32.8915 11.2697 33.0124 10.7258 33.0124 10.0853C33.0124 9.13056 32.7586 8.39939 32.251 7.89181C31.7555 7.37213 31.1452 7.1123 30.4201 7.1123C29.6949 7.1123 29.0846 7.37213 28.5891 7.89181C28.1057 8.39939 27.864 9.13056 27.864 10.0853C27.864 11.0401 28.0997 11.7773 28.571 12.2969C29.0544 12.8045 29.6587 13.0583 30.3838 13.0583Z" fill="#191F5B"/>
    <path d="M12.9857 10.0491C12.9857 9.03388 13.1851 8.13352 13.5839 7.34796C13.9948 6.56241 14.5447 5.95814 15.2335 5.53515C15.9345 5.11216 16.714 4.90067 17.5721 4.90067C18.3214 4.90067 18.974 5.05173 19.5299 5.35387C20.0979 5.656 20.5511 6.0367 20.8895 6.49594V5.06382H23.4456V15.1068H20.8895V13.6384C20.5632 14.1098 20.11 14.5025 19.5299 14.8168C18.9619 15.1189 18.3032 15.27 17.5539 15.27C16.708 15.27 15.9345 15.0524 15.2335 14.6173C14.5447 14.1823 13.9948 13.572 13.5839 12.7864C13.1851 11.9888 12.9857 11.0763 12.9857 10.0491ZM20.8895 10.0853C20.8895 9.46895 20.7687 8.94324 20.527 8.50816C20.2853 8.061 19.9589 7.72261 19.548 7.49299C19.1371 7.25128 18.696 7.13043 18.2247 7.13043C17.7534 7.13043 17.3183 7.24524 16.9195 7.47486C16.5206 7.70448 16.1943 8.04288 15.9405 8.49004C15.6988 8.92511 15.578 9.44478 15.578 10.0491C15.578 10.6533 15.6988 11.1851 15.9405 11.6443C16.1943 12.0915 16.5206 12.4359 16.9195 12.6776C17.3304 12.9193 17.7654 13.0402 18.2247 13.0402C18.696 13.0402 19.1371 12.9254 19.548 12.6958C19.9589 12.4541 20.2853 12.1157 20.527 11.6806C20.7687 11.2334 20.8895 10.7017 20.8895 10.0853Z" fill="#191F5B"/>
    <path d="M11.1402 2.45334V15.1068H8.60229V9.72272H3.18198V15.1068H0.644043V2.45334H3.18198V7.65611H8.60229V2.45334H11.1402Z" fill="#191F5B"/>
    <path d="M61.1009 4.85453C61.0539 4.80753 61.0304 4.72526 61.0891 4.643L61.2301 4.41972C61.2771 4.33745 61.3829 4.3257 61.4652 4.39621C61.6062 4.51373 61.9117 4.71351 62.2643 4.71351C62.6286 4.71351 62.8989 4.46672 62.8989 4.14942C62.8989 3.87913 62.6756 3.67935 62.2408 3.40906C61.8412 3.16227 61.3947 2.89197 61.3947 2.33964C61.3947 1.84606 61.7472 1.19971 62.6756 1.19971C63.1457 1.19971 63.463 1.36423 63.6275 1.48175C63.698 1.55226 63.7215 1.64628 63.6628 1.7638L63.5805 1.92832C63.51 2.04584 63.4042 2.03409 63.322 1.97533C63.0987 1.83431 62.8989 1.75204 62.6286 1.75204C62.2055 1.75204 62.041 2.02234 62.041 2.25737C62.041 2.53942 62.2996 2.69219 62.5934 2.88022C63.0987 3.19752 63.5453 3.49132 63.5453 4.07891C63.5453 4.6665 63.0869 5.2541 62.1938 5.2541C61.6885 5.2776 61.3007 5.04256 61.1009 4.85453Z" fill="#607182"/>
    <path d="M64.7674 4.20816L65.1082 1.83429H64.6734C64.5677 1.83429 64.5089 1.75202 64.5206 1.64626L64.5559 1.46998C64.5912 1.36421 64.6499 1.28195 64.7439 1.28195H65.2023L65.3433 0.200778C65.355 0.095011 65.449 0.0244996 65.5313 0.0127478L65.8369 0.000996072C65.9191 -0.0107558 65.9896 0.0832589 65.9661 0.189026L65.8134 1.28195H66.8123C66.918 1.28195 66.965 1.35246 66.9533 1.46998L66.9298 1.64626C66.918 1.75202 66.824 1.83429 66.7418 1.83429H65.7546L65.402 4.23167C65.355 4.61948 65.5196 4.67824 65.7076 4.67824C65.8956 4.67824 66.2012 4.51371 66.3187 4.40794C66.448 4.30218 66.5067 4.40794 66.542 4.47846L66.636 4.68999C66.683 4.80751 66.636 4.86627 66.5302 4.93678C66.3422 5.0778 65.9661 5.25408 65.5666 5.25408C64.9555 5.27758 64.6852 4.80751 64.7674 4.20816Z" fill="#607182"/>
    <path d="M69.5034 1.19971C70.326 1.19971 71.0076 1.98708 71.0076 2.93898C71.0076 4.19643 70.1027 5.26585 68.9628 5.26585C68.1402 5.26585 67.4586 4.46672 67.4586 3.50307C67.4586 2.26913 68.3635 1.19971 69.5034 1.19971ZM70.4083 2.99774C70.4083 2.31613 70.0205 1.7638 69.4446 1.7638C68.716 1.7638 68.0462 2.51591 68.0462 3.46782C68.0462 4.16118 68.4222 4.72527 69.0098 4.72527C69.7384 4.71351 70.4083 3.93789 70.4083 2.99774Z" fill="#607182"/>
    <path d="M71.842 5.00731L72.3355 1.48175C72.3473 1.38773 72.406 1.29372 72.5236 1.29372H72.6881C72.7586 1.29372 72.7939 1.34073 72.8174 1.42299L72.8644 1.70503C73.0289 1.517 73.405 1.21146 73.9455 1.21146C74.1336 1.21146 74.3216 1.23496 74.4509 1.30547C74.5214 1.34073 74.5566 1.42299 74.5096 1.517L74.3921 1.77555C74.3451 1.89306 74.2628 1.88131 74.1688 1.84606C74.0631 1.79905 73.922 1.77555 73.7693 1.77555C73.3344 1.77555 72.9466 2.16336 72.8174 2.32788L72.4648 4.99555C72.4413 5.10132 72.3473 5.18358 72.2415 5.18358H71.983C71.889 5.18358 71.8185 5.10132 71.842 5.00731Z" fill="#607182"/>
    <path d="M76.8248 1.19971C77.5181 1.19971 77.9999 1.62277 77.9999 2.21037C77.9999 2.96249 77.2478 3.46782 75.8964 3.46782C75.7318 3.46782 75.5556 3.45606 75.3558 3.44431C75.3088 4.07891 75.6613 4.70176 76.3194 4.70176C76.6955 4.70176 76.954 4.51373 77.1656 4.36096C77.2596 4.29045 77.3301 4.3022 77.4124 4.40796L77.5181 4.57249C77.5651 4.643 77.5886 4.70176 77.4594 4.80753C77.2126 4.99556 76.7542 5.2541 76.2607 5.2541C75.3558 5.2541 74.7917 4.46672 74.7917 3.53833C74.8034 2.29263 75.6143 1.19971 76.8248 1.19971ZM75.9669 2.97424C76.8835 2.97424 77.3888 2.70394 77.3888 2.24562C77.3888 1.98708 77.1656 1.75204 76.7777 1.75204C76.1431 1.75204 75.5438 2.33964 75.4263 2.95073C75.6261 2.96249 75.8141 2.97424 75.9669 2.97424Z" fill="#607182"/>
</svg>
