<svg width="134" height="38" viewBox="0 0 134 38" fill="none" xmlns="http://www.w3.org/2000/svg">
<mask id="mask0_827_246" style="mask-type:luminance" maskUnits="userSpaceOnUse" x="0" y="0" width="38" height="38">
<path d="M37.1382 0H0V37.1382H37.1382V0Z" fill="white"/>
</mask>
<g mask="url(#mask0_827_246)">
<path d="M10.4601 30.2935C8.2491 30.2973 6.07502 29.7269 4.15071 28.6381C4.13985 28.6329 4.12947 28.6329 4.1238 28.6277H4.11861C4.11588 28.6244 4.11197 28.6224 4.10774 28.622C3.77624 28.437 3.45444 28.2351 3.14361 28.0172H3.13841C2.79929 27.7839 2.47214 27.5336 2.15822 27.2674C1.10892 25.2932 0.428283 23.1442 0.149675 20.9259C0.0510144 20.1441 0.0010265 19.3569 1.40199e-06 18.5689C-0.000943572 16.136 0.475823 13.7267 1.40324 11.4776C1.41219 11.4651 1.41772 11.4504 1.4193 11.4351C1.42221 11.4259 1.42568 11.417 1.42968 11.4082C3.27101 7.01861 6.72244 3.50011 11.0758 1.57465C10.9686 1.72998 10.8619 1.89052 10.7599 2.05672L10.7547 2.06191V2.0671C10.7526 2.0766 10.7489 2.08569 10.7439 2.09402C9.45494 4.18087 8.78835 6.59225 8.82249 9.04481C8.85662 11.4974 9.59002 13.8893 10.9365 15.9395C10.9397 15.942 10.9418 15.9458 10.9422 15.9499C10.9426 15.9539 10.9445 15.9578 10.9474 15.9607C11.124 16.2176 11.2953 16.4697 11.4885 16.7105C11.4885 16.7162 11.4885 16.7214 11.4937 16.7214L11.7562 17.1817C11.7565 17.1858 11.7583 17.1898 11.7614 17.1926L11.7774 17.2086L12.6452 18.7195L16.4159 25.2537C16.6308 25.6206 16.936 25.9264 17.3026 26.142C17.6691 26.3577 18.0847 26.4759 18.5099 26.4855C18.5203 26.4886 18.5311 26.4905 18.542 26.4912C19.0936 26.4986 19.6323 26.3234 20.0741 25.9931C19.7141 26.3986 19.3275 26.7796 18.9169 27.1338C18.9055 27.1442 18.893 27.1532 18.8796 27.1607C16.7396 29.0133 14.0466 30.1056 11.2207 30.267C10.9686 30.2826 10.717 30.2935 10.4601 30.2935Z" fill="url(#paint0_linear_827_246)"/>
<path d="M36.1792 24.4713C36.1579 24.257 36.1258 24.0464 36.0937 23.8396C36.0889 23.8241 36.0852 23.8084 36.0829 23.7924C35.6277 21.037 34.2892 18.5044 32.2691 16.5762C30.249 14.648 27.6568 13.4288 24.8834 13.1023C24.8714 13.098 24.8588 13.0961 24.8461 13.0966C24.4495 13.0494 24.0481 13.0216 23.6411 13.0112C23.6164 13.0063 23.5912 13.0044 23.5661 13.0055C23.5413 13.0014 23.5161 12.9996 23.491 13.0003H13.6466C13.2619 12.9972 12.882 13.0852 12.5379 13.2572C12.2355 13.408 11.9671 13.619 11.749 13.8772C11.5309 14.1353 11.3678 14.4352 11.2695 14.7586C11.1713 15.082 11.14 15.422 11.1776 15.7578C11.2153 16.0936 11.321 16.4183 11.4883 16.7119C11.2952 16.4711 11.1238 16.219 10.9473 15.9621C10.9444 15.9592 10.9425 15.9553 10.9421 15.9513C10.9416 15.9472 10.9396 15.9434 10.9364 15.9409C9.21398 13.3099 8.50778 10.142 8.94958 7.02851C8.98688 6.76033 9.03504 6.49262 9.09406 6.23057C9.39586 4.76571 9.95437 3.36575 10.7438 2.09543C10.7488 2.0871 10.7525 2.07801 10.7546 2.06851V2.06332L10.7598 2.05812C10.8618 1.89192 10.9685 1.7314 11.0757 1.57606C13.4362 0.534325 15.9886 -0.00204218 18.5688 0.00142047C19.0027 0.00142047 19.4309 0.017474 19.8596 0.0443868C20.1382 0.065634 20.4168 0.0868809 20.6954 0.118987C20.7128 0.124174 20.7306 0.127807 20.7487 0.129846C25.2655 0.660782 29.4301 2.83204 32.4515 6.23128C35.4728 9.63051 37.1406 14.021 37.1381 18.5689C37.1403 20.1507 36.9368 21.7261 36.5328 23.2555C36.5272 23.2928 36.522 23.3197 36.5168 23.3414C36.4148 23.7267 36.3005 24.1016 36.1792 24.4713Z" fill="url(#paint1_linear_827_246)"/>
<path d="M18.569 37.1383C18.011 37.1412 17.4532 37.1144 16.898 37.058C13.8199 36.7835 10.8592 35.744 8.28505 34.0342C5.71087 32.3243 3.60483 29.9982 2.15833 27.2674C2.47225 27.5336 2.7994 27.7839 3.13852 28.0172H3.14371C3.45455 28.2351 3.77635 28.437 4.10785 28.622C4.11208 28.6224 4.11599 28.6244 4.11871 28.6277H4.12391C4.12957 28.6329 4.13996 28.6329 4.15082 28.6381C6.07513 29.7269 8.24922 30.2973 10.4602 30.2934C10.7171 30.2934 10.9687 30.2826 11.2209 30.2665C14.0462 30.1048 16.7387 29.0126 18.8783 27.1602C18.8917 27.1528 18.9042 27.1437 18.9156 27.1333C19.3262 26.7791 19.7128 26.3981 20.0728 25.9926C20.3343 25.7915 20.5528 25.5401 20.7154 25.2532L20.8009 25.1139V25.1082L22.317 22.4783L22.7561 21.7125L25.6362 16.7209C25.7299 16.5565 25.8053 16.3823 25.861 16.2015C25.97 15.8433 25.9964 15.465 25.9381 15.0951C25.8798 14.7252 25.7383 14.3734 25.5244 14.0661C25.3105 13.7587 25.0296 13.504 24.7029 13.3209C24.3763 13.1379 24.0123 13.0313 23.6385 13.0093C24.0455 13.0197 24.4468 13.0466 24.8435 13.0947C24.8562 13.0942 24.8688 13.0961 24.8808 13.1004C27.6542 13.4269 30.2464 14.6461 32.2665 16.5743C34.2866 18.5025 35.6251 21.0351 36.0803 23.7905C36.0826 23.8065 36.0863 23.8222 36.0911 23.8377C36.1232 24.0464 36.1553 24.2551 36.1766 24.4694C35.4438 26.6626 34.3026 28.6972 32.813 30.4658C31.0746 32.556 28.897 34.2374 26.4352 35.3907C23.9733 36.5439 21.2876 37.1406 18.569 37.1383Z" fill="url(#paint2_linear_827_246)"/>
<g style="mix-blend-mode:multiply" opacity="0.3">
<path d="M10.4603 30.2934C8.24928 30.2973 6.0752 29.7269 4.15088 28.6381C4.14002 28.6329 4.12963 28.6329 4.12397 28.6277H4.11877C4.11605 28.6244 4.11214 28.6224 4.10791 28.622C3.77641 28.437 3.45461 28.2351 3.14378 28.0172H3.13858C2.79946 27.7839 2.47231 27.5337 2.15838 27.2674C1.10909 25.2932 0.428449 23.1442 0.149841 20.9259C0.299986 21.0487 0.455327 21.1719 0.605001 21.2899C7.34312 26.5549 13.6147 26.4836 16.6625 26.003C16.7857 25.9817 16.9033 25.9657 17.0157 25.9444C17.4397 26.2859 17.9656 26.4762 18.51 26.485C18.5205 26.4881 18.5312 26.49 18.5422 26.4907C19.0938 26.4981 19.6324 26.323 20.0743 25.9926C19.7143 26.3981 19.3277 26.7792 18.917 27.1333C18.9057 27.1438 18.8932 27.1528 18.8797 27.1602C16.7398 29.0129 14.0468 30.1052 11.2209 30.2665C10.9688 30.2826 10.7171 30.2934 10.4603 30.2934Z" fill="black"/>
</g>
<g style="mix-blend-mode:multiply" opacity="0.2">
<path d="M32.8158 30.47C32.3075 25.0277 29.8364 19.9563 25.8638 16.202C25.9729 15.8438 25.9992 15.4655 25.9409 15.0956C25.8826 14.7257 25.7412 14.3739 25.5272 14.0665C25.3133 13.7592 25.0324 13.5044 24.7057 13.3214C24.3791 13.1383 24.0152 13.0318 23.6414 13.0098C24.0484 13.0202 24.4497 13.0471 24.8463 13.0952C24.859 13.0947 24.8717 13.0966 24.8836 13.1009C27.6571 13.4273 30.2493 14.6466 32.2694 16.5748C34.2894 18.503 35.6279 21.0356 36.0831 23.7909C36.0855 23.8069 36.0891 23.8227 36.094 23.8382C36.1261 24.0468 36.1582 24.2555 36.1794 24.4699C35.4471 26.6644 34.3058 28.7003 32.8158 30.47Z" fill="black"/>
</g>
<g style="mix-blend-mode:multiply" opacity="0.2">
<path d="M11.4882 16.7105C11.2951 16.464 11.1185 16.2124 10.942 15.9498C10.9415 15.9458 10.9395 15.9421 10.9363 15.9395C9.58791 13.8857 8.85441 11.4893 8.82221 9.03264C8.79001 6.57598 9.46043 4.16122 10.7545 2.07277V2.06191L10.7597 2.05672C10.8617 1.89052 10.9684 1.72999 11.0756 1.57465C13.4362 0.532921 15.9885 -0.00344599 18.5687 1.66591e-05C19.0026 1.66591e-05 19.4308 0.0160697 19.8595 0.0429825C13.459 4.78292 12.5647 10.5659 12.5378 13.2571C12.2357 13.408 11.9674 13.619 11.7494 13.877C11.5314 14.1351 11.3684 14.4348 11.2701 14.758C11.1719 15.0812 11.1406 15.421 11.1781 15.7567C11.2156 16.0924 11.3211 16.4169 11.4882 16.7105Z" fill="black"/>
</g>
<g style="mix-blend-mode:screen" opacity="0.5">
<path d="M36.5331 23.2555C36.5704 23.052 36.6402 22.6341 36.7219 22.0397C36.8761 20.8556 36.9235 19.66 36.8636 18.4674C36.8276 17.6741 36.7453 16.8836 36.6172 16.1C36.4716 15.2325 36.2694 14.3754 36.0118 13.5343C35.7317 12.6373 35.3864 11.762 34.9788 10.9153C34.5592 10.0398 34.0722 9.19819 33.5222 8.39822C32.9819 7.60065 32.3822 6.84511 31.728 6.13801C31.085 5.45466 30.3979 4.81414 29.6712 4.22058C29.3228 3.92029 28.9428 3.68468 28.5943 3.41178C28.2251 3.17051 27.8766 2.91885 27.5126 2.71016C27.1486 2.50146 26.8001 2.28144 26.4413 2.11005C26.0933 1.92119 25.7505 1.75121 25.4077 1.60673C25.0772 1.45139 24.7491 1.31211 24.4327 1.19973C24.1169 1.07131 23.8222 0.95327 23.5332 0.862144C22.9667 0.66384 22.4568 0.531636 22.0333 0.423042C21.6097 0.314447 21.2731 0.25165 21.0479 0.198297C20.9034 0.165718 20.8014 0.139278 20.748 0.128418C25.2652 0.65917 29.4302 2.83053 32.4519 6.23008C35.4735 9.62964 37.1412 14.0206 37.1384 18.5689C37.1405 20.1507 36.937 21.7261 36.5331 23.2555Z" fill="#0443A2"/>
</g>
<g style="mix-blend-mode:multiply" opacity="0.3">
<path d="M18.5689 37.1383C18.0109 37.1413 17.4531 37.1145 16.8979 37.058C12.685 36.6824 8.72711 34.8778 5.68082 31.9436C2.6345 29.0093 0.682872 25.1218 0.149675 20.9259C0.0510144 20.1441 0.0010265 19.3569 1.40199e-06 18.5689C-0.000943572 16.1361 0.475823 13.7268 1.40324 11.4777C1.34422 11.6547 1.17803 12.1528 0.978309 12.913C0.62425 14.2329 0.412466 15.5869 0.346567 16.9518C0.270647 18.4029 0.356792 19.858 0.603413 21.29C0.678486 21.7347 0.769612 22.1899 0.881984 22.6451C1.13956 23.6866 1.48549 24.7044 1.916 25.6871C2.13555 26.1853 2.38202 26.6994 2.64407 27.1603C2.80507 27.4492 2.9708 27.7387 3.13699 28.0172H3.14219C3.26542 28.2151 3.38866 28.4082 3.51708 28.5956C4.12358 29.5191 4.81583 30.3834 5.58464 31.1769C6.323 31.957 7.12878 32.6704 7.99263 33.3087C8.79992 33.9086 9.6523 34.4453 10.5423 34.914C10.9762 35.1283 11.3888 35.3427 11.8119 35.5141C12.0206 35.6052 12.2241 35.6907 12.4257 35.7766C12.6292 35.8517 12.8327 35.9263 13.031 35.9962C13.4219 36.1515 13.8185 36.253 14.1826 36.3659C14.5523 36.4886 14.9111 36.5637 15.243 36.644C15.5555 36.7247 15.8719 36.7892 16.1911 36.8371C16.4857 36.8843 16.7577 36.9438 16.9999 36.9655C18.0014 37.0689 18.5689 37.1383 18.5689 37.1383Z" fill="black"/>
</g>
<g style="mix-blend-mode:multiply" opacity="0.3">
<path d="M18.0118 26.5247C17.5218 26.4943 17.0527 26.3149 16.6675 26.0105L16.6623 26.0049C16.4029 25.8024 16.1831 25.5536 16.0141 25.2711C15.8323 25.0086 15.6392 24.7305 15.4517 24.4359C15.2643 24.1413 15.066 23.8414 14.8785 23.5251C14.6911 23.2088 14.5037 22.8934 14.312 22.5718C14.1297 22.2508 13.9531 21.924 13.7709 21.6025C13.5886 21.281 13.4338 20.9599 13.2728 20.6544C12.9517 20.033 12.6731 19.4438 12.4479 18.9296C12.189 18.3637 11.9601 17.7845 11.7623 17.1945L11.7784 17.2105L12.6462 18.7214L16.4168 25.2556C16.6318 25.6225 16.937 25.9283 17.3035 26.1439C17.6701 26.3595 18.0857 26.4778 18.5108 26.4874C18.5213 26.4905 18.5321 26.4924 18.5429 26.4931C18.5429 26.4931 18.4957 26.4983 18.4093 26.5143C18.2776 26.5327 18.1443 26.5362 18.0118 26.5247Z" fill="black"/>
</g>
<g style="mix-blend-mode:multiply" opacity="0.3">
<path d="M10.9498 15.9593C10.9498 15.9593 10.794 15.7884 10.548 15.465C10.2075 15.0151 9.90731 14.536 9.65089 14.0334C9.28421 13.3177 8.99686 12.5641 8.79393 11.786C8.68014 11.3451 8.59218 10.898 8.53046 10.4469C8.47041 9.98026 8.43509 9.51075 8.4247 9.04039C8.41856 8.80148 8.43226 8.56824 8.43887 8.33877C8.4535 8.09986 8.46672 7.8619 8.49316 7.63054C8.53873 7.17755 8.61474 6.72811 8.72074 6.28537C8.89889 5.50079 9.16561 4.73907 9.51585 4.01477C9.75825 3.50531 10.0454 3.01834 10.3738 2.55959C10.6098 2.22908 10.7628 2.05438 10.7628 2.05438L10.5135 2.63749C10.3577 3.00766 10.149 3.53884 9.94457 4.18522C9.71482 4.91716 9.53776 5.66458 9.41481 6.42182C9.3421 6.83402 9.30433 7.26509 9.26561 7.70136C9.24483 7.92091 9.23775 8.13763 9.22831 8.3553C9.22595 8.58382 9.21886 8.80857 9.22831 9.02859C9.23676 9.90141 9.32194 10.7718 9.4828 11.6297C9.57062 12.0381 9.64805 12.4375 9.75476 12.8101C9.86147 13.1826 9.96676 13.5311 10.0735 13.8531C10.2977 14.4919 10.5197 15.0198 10.6873 15.3828L10.9498 15.9593Z" fill="black"/>
</g>
<g style="mix-blend-mode:multiply" opacity="0.3">
<path d="M4.10645 28.623C4.10645 28.623 4.33827 28.7217 4.74434 28.8713C5.15039 29.021 5.73256 29.2254 6.44032 29.4124C7.24256 29.6201 8.06009 29.7636 8.88513 29.8416C9.3351 29.8888 9.80253 29.8973 10.2756 29.903H10.4536L10.625 29.8954L10.9942 29.8789L11.1793 29.8704L11.346 29.8567L11.7162 29.8237C12.1897 29.7792 12.6605 29.7091 13.1265 29.6136C13.5887 29.5139 14.0448 29.4134 14.4759 29.2764C15.2691 29.0367 16.0416 28.7331 16.7857 28.3685C17.3189 28.1066 17.838 27.8171 18.341 27.5011L18.9175 27.1324C18.9175 27.1324 18.875 27.1796 18.7947 27.2632C18.7144 27.3467 18.6021 27.4808 18.4392 27.6272C18.001 28.0503 17.5248 28.4321 17.0166 28.7679C16.6769 28.9966 16.3241 29.205 15.9599 29.3921C15.1136 29.8271 14.217 30.1561 13.2903 30.3718C12.7919 30.4847 12.2875 30.5689 11.7794 30.624L11.4088 30.6499L11.2048 30.6627L11.0193 30.6674L10.65 30.6768L10.4536 30.6816L10.2648 30.6768C8.90251 30.6386 7.558 30.3577 6.29442 29.8473C5.7302 29.6175 5.18746 29.3381 4.67255 29.0125C4.48369 28.8973 4.34724 28.7948 4.25234 28.7268L4.10645 28.623Z" fill="black"/>
</g>
<g style="mix-blend-mode:multiply" opacity="0.3">
<path d="M24.8365 13.0896L25.0253 13.0934C25.1486 13.0986 25.3294 13.0905 25.5594 13.1146C26.1999 13.1583 26.8348 13.2626 27.4556 13.4262C28.341 13.6581 29.1951 13.9959 29.9995 14.4324C30.9276 14.9363 31.7849 15.5607 32.5491 16.2894C32.9335 16.661 33.2943 17.0561 33.6295 17.4726C34.5283 18.5927 35.21 19.8709 35.6394 21.2413C35.8323 21.8533 35.9662 22.4822 36.0393 23.1196C36.0742 23.3476 36.0728 23.5313 36.0865 23.6536L36.0988 23.8424C36.0988 23.8424 36.0256 23.5884 35.8854 23.154C35.694 22.5594 35.4687 21.9761 35.2107 21.4071C34.8476 20.6133 34.4175 19.8519 33.925 19.1313C33.6544 18.7389 33.3546 18.3489 33.0336 17.9674C32.71 17.5803 32.3631 17.2132 31.9948 16.8683C31.6352 16.5165 31.2542 16.1873 30.8541 15.8824C30.4537 15.5854 30.0599 15.2894 29.6506 15.0453C28.9076 14.587 28.1274 14.1921 27.3182 13.8649C26.7356 13.6334 26.1403 13.4353 25.5353 13.2714L24.8365 13.0896Z" fill="black"/>
</g>
</g>
<path d="M116.637 27.7438V24.0696H117.758V13.9879H116.637V10.3137H131.76V17.0796H126.742V13.9879H124.031V17.5277H126.002V20.0817H124.031V24.0696H126.742V20.5298H131.76V27.7438H116.637Z" fill="#607182"/>
<path d="M114.712 24.0696H115.832V27.7438H109.716L106.355 20.7987L105.324 21.65V24.0696H106.4V27.7438H97.9311V24.0696H99.0513V13.9879H97.9311V10.3137H106.4V13.9879H105.324V16.9452L108.797 13.9879H107.386V10.3137H115.72V13.9879H114.6L110.858 17.0796L114.712 24.0696Z" fill="#607182"/>
<path d="M88.6113 28.0575C85.878 28.0575 83.7646 27.3406 82.271 25.9067C80.7924 24.4729 80.053 22.1802 80.053 19.0287C80.053 15.8773 80.7924 13.5846 82.271 12.1508C83.7646 10.7169 85.878 10 88.6113 10C91.3446 10 93.4505 10.7169 94.9292 12.1508C96.4228 13.5846 97.1696 15.8773 97.1696 19.0287C97.1696 22.1802 96.4228 24.4729 94.9292 25.9067C93.4505 27.3406 91.3446 28.0575 88.6113 28.0575ZM88.6113 24.0696C89.1191 24.0696 89.5 23.9352 89.7539 23.6663C90.0078 23.3975 90.1348 22.9793 90.1348 22.4117V15.6458C90.1348 15.0782 90.0078 14.66 89.7539 14.3912C89.5 14.1223 89.1191 13.9879 88.6113 13.9879C88.1035 13.9879 87.7226 14.1223 87.4687 14.3912C87.2148 14.66 87.0878 15.0782 87.0878 15.6458V22.4117C87.0878 22.9942 87.2148 23.4199 87.4687 23.6887C87.7226 23.9427 88.1035 24.0696 88.6113 24.0696Z" fill="#27C3E9"/>
<path d="M79.2602 24.0696H80.1563V27.7438H71.374V24.0696H72.7183L72.3598 22.2773H69.3129L68.9544 24.0696H70.2986V27.7438H62.6365V24.0696H63.5327L67.3189 10.3137H75.4739L79.2602 24.0696ZM69.8058 19.9025H71.8669L70.9484 15.4441H70.7243L69.8058 19.9025Z" fill="#607182"/>
<path d="M61.9231 13.9879H60.8029V24.0696H61.9231V27.7438H53.4544V24.0696H54.5298V20.373H51.3933V24.0696H52.4686V27.7438H44V24.0696H45.1202V13.9879H44V10.3137H52.4686V13.9879H51.3933V17.3933H54.5298V13.9879H53.4544V10.3137H61.9231V13.9879Z" fill="#607182"/>
<path d="M131.96 6.92C133.045 6.92 133.92 6.045 133.92 4.96C133.92 3.875 133.045 3 131.96 3C130.875 3 130 3.875 130 4.96C130 6.045 130.875 6.92 131.96 6.92ZM131.96 3.28C132.87 3.28 133.605 4.015 133.605 4.925C133.605 5.835 132.87 6.57 131.96 6.57C131.05 6.57 130.315 5.835 130.315 4.925C130.315 4.085 131.05 3.28 131.96 3.28Z" fill="#607182"/>
<path d="M131.295 5.97499H131.47C131.505 5.97499 131.54 5.93999 131.54 5.90499V5.20499H131.96L132.345 5.93999C132.345 5.97499 132.38 5.97499 132.415 5.97499H132.625C132.66 5.97499 132.695 5.93999 132.66 5.90499L132.275 5.20499C132.52 5.09999 132.695 4.88999 132.695 4.64499C132.695 4.29499 132.415 4.04999 132.065 4.04999H131.295C131.26 4.04999 131.225 4.08499 131.225 4.11999V5.97499C131.225 5.93999 131.26 5.97499 131.295 5.97499ZM131.54 4.25999H132.03C132.205 4.25999 132.38 4.39999 132.38 4.60999C132.38 4.81999 132.205 4.95999 132.03 4.95999H131.54V4.25999Z" fill="#607182"/>
<defs>
<linearGradient id="paint0_linear_827_246" x1="-626.431" y1="13.895" x2="-600.278" y2="13.895" gradientUnits="userSpaceOnUse">
<stop stop-color="#27C3E9"/>
<stop offset="0.074" stop-color="#27C3E9"/>
<stop offset="0.293" stop-color="#27C3E9"/>
<stop offset="0.501" stop-color="#27C3E9"/>
<stop offset="0.695" stop-color="#27C3E9"/>
<stop offset="0.867" stop-color="#27C3E9"/>
<stop offset="1" stop-color="#27C3E9"/>
</linearGradient>
<linearGradient id="paint1_linear_827_246" x1="-622.79" y1="14.9036" x2="-618.064" y2="-10.3666" gradientUnits="userSpaceOnUse">
<stop stop-color="#0443A2"/>
<stop offset="1" stop-color="#0443A2"/>
</linearGradient>
<linearGradient id="paint2_linear_827_246" x1="-599.013" y1="18.9692" x2="-604.183" y2="-11.3877" gradientUnits="userSpaceOnUse">
<stop stop-color="#067DCD"/>
<stop offset="0.238" stop-color="#067DCD"/>
<stop offset="0.44" stop-color="#067DCD"/>
<stop offset="0.629" stop-color="#067DCD"/>
<stop offset="0.81" stop-color="#067DCD"/>
<stop offset="0.983" stop-color="#067DCD"/>
<stop offset="1" stop-color="#067DCD"/>
</linearGradient>
</defs>
</svg>
