<svg width="84" height="84" viewBox="0 0 84 84" fill="none" xmlns="http://www.w3.org/2000/svg">
    <g opacity="0.84">
        <rect width="84" height="84" rx="10" fill="#335EEA"/>
        <path d="M33.2563 28.0571C34.9315 28.0571 36.2895 29.4151 36.2895 31.0903V55.2699C36.2895 56.9452 34.9315 58.3032 33.2563 58.3032V58.3032C31.581 58.3032 30.223 56.9452 30.223 55.27V51.8683C30.223 48.3144 27.2986 45.4334 23.7447 45.4334V45.4334C20.1909 45.4334 17.2665 48.3144 17.2665 51.8683V55.2699C17.2665 56.9452 15.9085 58.3032 14.2332 58.3032V58.3032C12.558 58.3032 11.2 56.9452 11.2 55.2699V31.0903C11.2 29.4151 12.558 28.0571 14.2332 28.0571V28.0571C15.9085 28.0571 17.2665 29.4151 17.2665 31.0903V34.2753C17.2665 37.7095 20.0505 40.4935 23.4848 40.4935H24.0047C27.439 40.4935 30.223 37.7095 30.223 34.2753V31.0903C30.223 29.4151 31.581 28.0571 33.2563 28.0571V28.0571Z" fill="white"/>
        <path d="M60.2792 57.7328C59.394 57.7328 58.5569 57.3295 58.0053 56.637L55.453 53.433C53.891 51.4722 50.7317 52.5767 50.7317 55.0836V55.0836C50.7317 56.5467 49.5457 57.7328 48.0826 57.7328H47.6984C46.0232 57.7328 44.6652 56.3748 44.6652 54.6995V28.7C44.6652 27.0247 46.0232 25.6667 47.6984 25.6667V25.6667C49.3737 25.6667 50.7317 27.0247 50.7317 28.7V32.7937C50.7317 36.459 55.3558 38.0675 57.6305 35.1935L57.9119 34.838C58.4676 34.1359 59.3137 33.7265 60.209 33.7265V33.7265C62.7281 33.7265 64.0725 36.6953 62.4108 38.5885L59.1054 42.3545C57.3921 44.3065 57.4033 47.2296 59.1314 49.1685L62.4495 52.8913C64.1198 54.7653 62.7896 57.7328 60.2792 57.7328V57.7328Z" fill="white"/>
        <path d="M70.959 54.6905C70.959 53.1828 72.1812 51.9605 73.6889 51.9605V51.9605C75.1967 51.9605 76.4189 53.1828 76.4189 54.6905V54.6905C76.4189 56.1982 75.1967 57.4205 73.6889 57.4205V57.4205C72.1812 57.4205 70.959 56.1982 70.959 54.6905V54.6905Z" fill="white"/>
    </g>
</svg>
